<svg xmlns="http://www.w3.org/2000/svg" viewBox="0 0 1600 1300" role="img" aria-label="Exhibition visual study">
  <defs>
    <radialGradient id="core" cx="52%" cy="62%" r="72%">
      <stop offset="0" stop-color="#fff166"/>
      <stop offset="0.24" stop-color="#f38f96"/>
      <stop offset="0.52" stop-color="#6b8f6e"/>
      <stop offset="0.76" stop-color="#5b8d7a"/>
      <stop offset="1" stop-color="#4477a8"/>
    </radialGradient>
    <filter id="softGrain">
      <feTurbulence type="fractalNoise" baseFrequency="0.72" numOctaves="2" stitchTiles="stitch"/>
      <feColorMatrix type="saturate" values="0"/>
      <feComponentTransfer>
        <feFuncA type="table" tableValues="0 0.12"/>
      </feComponentTransfer>
    </filter>
  </defs>
  <rect width="1600" height="1300" fill="url(#core)"/>
  <rect width="1600" height="1300" filter="url(#softGrain)" opacity="0.42"/>
  <g fill="none" stroke="#070707" stroke-width="34" stroke-linecap="square" stroke-linejoin="miter">
    <path d="M220 555 L590 625 L610 560"/>
    <path d="M1090 605 L1458 520 L1476 590"/>
    <path d="M280 870 L352 874"/>
    <path d="M1355 872 L1430 878"/>
  </g>
  <g fill="none" stroke="#070707" stroke-width="38" stroke-linecap="round">
    <path d="M515 144 C560 126 642 250 680 316 C704 360 707 408 675 425 C648 439 612 406 580 362 L495 238 C464 193 472 158 515 144Z"/>
    <path d="M1192 146 C1154 140 1120 180 1104 238 C1087 301 1012 334 1013 394 C1014 427 1047 431 1086 400 C1125 368 1136 279 1156 236 C1176 191 1218 196 1246 238"/>
  </g>
  <g fill="none" stroke="#070707" stroke-width="24" stroke-linecap="square">
    <path d="M300 900 L370 908"/>
    <path d="M1350 904 L1422 914"/>
  </g>
</svg>
